<svg width="72" height="73" viewBox="0 0 72 73" fill="none" xmlns="http://www.w3.org/2000/svg">
<g clip-path="url(#clip0_3_74)">
<rect x="0.435547" y="0.112823" width="71.3959" height="72.7744" rx="10" fill="#02D790"/>
<path d="M36.1335 0.112823C16.4182 0.112823 0.435547 16.4041 0.435547 36.5C0.435547 56.5971 16.4182 72.8872 36.1335 72.8872C55.8499 72.8872 71.8314 56.5971 71.8314 36.5C71.8314 16.4041 55.8499 0.112823 36.1335 0.112823ZM36.1335 68.4105C18.9103 68.4105 4.89779 54.0557 4.89779 36.4999C4.89779 18.9442 18.9103 4.66108 36.1335 4.66108C53.3566 4.66108 67.3692 18.9443 67.3692 36.4999C67.3692 54.0555 53.3566 68.4105 36.1335 68.4105ZM51.7513 34.2258H38.3646V20.5806C38.3646 19.3253 37.3651 18.3064 36.1335 18.3064C34.9019 18.3064 33.9024 19.3253 33.9024 20.5806V34.2258H20.5156C19.2841 34.2258 18.2845 35.2447 18.2845 36.5C18.2845 37.7554 19.2841 38.7742 20.5156 38.7742H33.9024V52.4194C33.9024 53.6748 34.9019 54.6936 36.1335 54.6936C37.3651 54.6936 38.3646 53.6748 38.3646 52.4194V38.7742H51.7513C52.9829 38.7742 53.9824 37.7554 53.9824 36.5C53.9824 35.2447 52.9829 34.2258 51.7513 34.2258Z" fill="black"/>
</g>
<defs>
<clipPath id="clip0_3_74">
<rect x="0.435547" y="0.112823" width="71.3959" height="72.7744" rx="10" fill="white"/>
</clipPath>
</defs>
</svg>
