<svg width="100" height="101" viewBox="0 0 100 101" fill="none" xmlns="http://www.w3.org/2000/svg">
<path d="M61.7875 50.6083L67.6791 56.5L50 74.1791L32.3208 56.5L38.2166 50.6083L45.8333 58.225V26.8208H54.1666V58.225L61.7875 50.6083Z" fill="#342628" fill-opacity="0.8"/>
<path fill-rule="evenodd" clip-rule="evenodd" d="M82.4084 82.9083C64.5084 100.808 35.4917 100.808 17.5917 82.9083C-0.308251 65.0083 -0.308251 35.9916 17.5917 18.0916C35.4917 0.191627 64.5084 0.191627 82.4084 18.0916C100.308 35.9916 100.308 65.0083 82.4084 82.9083ZM76.5167 77.0166C73.0345 80.4988 68.9005 83.2611 64.3508 85.1456C59.8011 87.0302 54.9247 88.0002 50.0001 88.0002C45.0755 88.0002 40.1991 87.0302 35.6494 85.1456C31.0996 83.2611 26.9656 80.4988 23.4834 77.0166C20.0012 73.5344 17.2389 69.4004 15.3544 64.8507C13.4698 60.3009 12.4999 55.4246 12.4999 50.5C12.4999 45.5754 13.4698 40.699 15.3544 36.1492C17.2389 31.5995 20.0012 27.4655 23.4834 23.9833C30.5161 16.9506 40.0544 12.9997 50.0001 12.9997C59.9458 12.9997 69.4841 16.9506 76.5167 23.9833C83.5494 31.0159 87.5003 40.5543 87.5003 50.5C87.5003 60.4456 83.5494 69.984 76.5167 77.0166Z" fill="#342628" fill-opacity="0.8"/>
</svg>
