<svg width="141" height="87" viewBox="0 0 141 87" fill="none" xmlns="http://www.w3.org/2000/svg">
<path d="M52.2484 29.6163C48.6059 29.6163 45.6292 26.825 45.6292 23.4537C45.6292 21.829 46.3266 20.2707 47.568 19.1218C48.8093 17.9729 50.4929 17.3275 52.2484 17.3275C55.9301 17.3275 58.9067 20.0825 58.9067 23.4537C58.9067 26.825 55.9301 29.6163 52.2484 29.6163ZM40.3417 72.2463L17.1159 67.9688L18.4476 61.8062L34.7017 64.8875L39.9892 40.02L34.0359 42.195V52.5625H27.4167V38.2075L44.6501 31.4288L47.2742 31.1388C49.6242 31.1388 51.5826 32.3712 52.8751 34.22L56.2434 39.1138C58.9067 43.5 64.1942 46.4725 70.5001 46.4725V52.5625C63.2151 52.5625 56.5568 49.5537 52.2484 44.95L50.2901 54.1575L57.2226 60.2837V83.375H50.6034V64.8875L43.6318 58.7612L40.3417 72.2463ZM82.2501 83.375H74.4167V10.875H23.5001V58.3988L15.6667 56.8762V3.625H82.2501V83.375ZM23.5001 83.375H15.6667V71.7025L23.5001 73.225V83.375Z" fill="black"/>
<path d="M119.985 29.2675C120.572 28.7551 121.369 28.4673 122.2 28.4673C123.031 28.4673 123.828 28.7551 124.415 29.2675L138.515 41.5675C139.103 42.0801 139.433 42.7752 139.433 43.5C139.433 44.2248 139.103 44.9199 138.515 45.4325L124.415 57.7325C123.824 58.2304 123.033 58.5059 122.211 58.4996C121.39 58.4934 120.604 58.206 120.023 57.6992C119.442 57.1924 119.112 56.5068 119.105 55.7902C119.098 55.0735 119.414 54.3831 119.985 53.8675L128.467 46.2333H98.7C97.869 46.2333 97.072 45.9454 96.4844 45.4328C95.8968 44.9202 95.5667 44.2249 95.5667 43.5C95.5667 42.7751 95.8968 42.0798 96.4844 41.5672C97.072 41.0546 97.869 40.7667 98.7 40.7667H128.467L119.985 33.1325C119.397 32.6199 119.067 31.9248 119.067 31.2C119.067 30.4752 119.397 29.7801 119.985 29.2675Z" fill="black"/>
</svg>
