<svg width="74" height="75" viewBox="0 0 74 75" fill="none" xmlns="http://www.w3.org/2000/svg">
<path d="M60.4333 65.5834L41.0083 46.1584C39.4667 47.3917 37.6937 48.3681 35.6896 49.0875C33.6854 49.807 31.5528 50.1667 29.2917 50.1667C23.6903 50.1667 18.9502 48.2263 15.0713 44.3454C11.1925 40.4645 9.25206 35.7244 9.25 30.125C9.25 24.5237 11.1904 19.7835 15.0713 15.9047C18.9522 12.0259 23.6923 10.0854 29.2917 10.0834C34.8931 10.0834 39.6332 12.0238 43.512 15.9047C47.3908 19.7856 49.3313 24.5257 49.3333 30.125C49.3333 32.3862 48.9736 34.5188 48.2542 36.523C47.5347 38.5271 46.5583 40.3 45.325 41.8417L64.75 61.2667L60.4333 65.5834ZM29.2917 44C33.1458 44 36.4224 42.6506 39.1213 39.9516C41.8203 37.2527 43.1687 33.9772 43.1667 30.125C43.1667 26.2709 41.8172 22.9943 39.1182 20.2954C36.4193 17.5964 33.1438 16.248 29.2917 16.25C25.4375 16.25 22.1609 17.5995 19.462 20.2985C16.7631 22.9974 15.4146 26.2729 15.4167 30.125C15.4167 33.9792 16.7661 37.2558 19.4651 39.9547C22.164 42.6536 25.4396 44.0021 29.2917 44Z" fill="#333333"/>
</svg>
